HIERARCHY
ROOT pelvis
{
  OFFSET 0 100 0
  CHANNELS 6 Xposition Yposition Zposition Zrotation Xrotation Yrotation
  JOINT pelvis_right_femur
  {
    OFFSET -10.78128 -3.44521 -0.5502486
    CHANNELS 3 Zrotation Xrotation Yrotation
    JOINT right_femur_tibia
    {
      OFFSET -0.8047443 -44.0398 -0.1307829
      CHANNELS 3 Zrotation Xrotation Yrotation
      JOINT right_tibia_foot
      {
        OFFSET 3.006224 -47.83518 -5
        CHANNELS 3 Zrotation Xrotation Yrotation
        End Site
        {
          OFFSET 0 -5 15
        }
      }
    }
  }
  JOINT pelvis_left_femur
  {
    OFFSET 10.78128 -3.44521 -0.5502486
    CHANNELS 3 Zrotation Xrotation Yrotation
    JOINT left_femur_tibia
    {
      OFFSET 0.8047443 -44.0398 -0.1307829
      CHANNELS 3 Zrotation Xrotation Yrotation
      JOINT left_tibia_foot
      {
        OFFSET -4.370144 -48.10324 -4.275266
        CHANNELS 3 Zrotation Xrotation Yrotation
        End Site
        {
          OFFSET 0 -5 15
        }
      }
    }
  }
  JOINT pelvis_spine1
  {
    OFFSET 0 6.468898 -3.129235
    CHANNELS 3 Zrotation Xrotation Yrotation
    JOINT spine1
    {
      OFFSET 0 23.15396 4.99043
      CHANNELS 3 Zrotation Xrotation Yrotation
      JOINT spine2
      {
        OFFSET 0 20.79997 -5.064912
        CHANNELS 3 Zrotation Xrotation Yrotation
        JOINT neck
        {
          OFFSET 0 14.38658 9.616178
          CHANNELS 3 Zrotation Xrotation Yrotation
          End Site
          {
            OFFSET 0 20 0
          }
        }
      }
      JOINT right_manubrium
      {
        OFFSET -5.722621 16.35077 3.967754
        CHANNELS 3 Zrotation Xrotation Yrotation
        JOINT right_clavicle
        {
          OFFSET -13.16364 1.694482 -4.693211
          CHANNELS 3 Zrotation Xrotation Yrotation
          JOINT right_humerus
          {
            OFFSET -28.5034 -0.3100689 -2.792744
            CHANNELS 3 Zrotation Xrotation Yrotation
            JOINT right_radius
            {
              OFFSET -25.15693 0.02248979 -1.271978
              CHANNELS 3 Zrotation Xrotation Yrotation
              End Site
              {
                OFFSET -15 0 0
              }
            }
          }
        }
      }
      JOINT left_manubrium
      {
        OFFSET 5.722621 16.35077 3.967754
        CHANNELS 3 Zrotation Xrotation Yrotation
        JOINT left_clavicle
        {
          OFFSET 13.16364 1.694482 -4.693211
          CHANNELS 3 Zrotation Xrotation Yrotation
          JOINT left_humerus
          {
            OFFSET 29.39168 -1.063119 -2.237045
            CHANNELS 3 Zrotation Xrotation Yrotation
            JOINT left_radius
            {
              OFFSET 24.59957 -0.9528479 0.9047498
              CHANNELS 3 Zrotation Xrotation Yrotation
              End Site
              {
                OFFSET 15 -0 -0
              }
            }
          }
        }
      }
    }
  }
}
MOTION
Frames: 7
Frame Time: 0.0416666666667
0 103.5113 0 0.922841 -0.3984357 -0.03521986 4.304933 -18.84894 10.73319 -0 40.89646 -0 -4.624273 -17.60525 -3.088956 -7.563948 9.131593 -23.32755 -0 5.099146 -0 19.72299 -8.127973 29.617 -3.242245 -3.169949 4.916919 2.540442 10.70325 -6.887975 1.838809 22.62175 6.456338 1.998666 -25.53128 10.5447 5.745719 -21.39615 12.31309 87.59454 37.70272 -18.15698 -0 0 14.01683 -6.744664 8.230147 6.983274 2.821544 -17.58283 -4.079397 -90.47569 24.28355 20.40531 0 0 -19.50059 14.94068 12.87828 0.04050898
0.2679263 104.9809 1.677132 0.8707419 -0.4113168 -0.04051132 4.346331 -19.73412 10.36766 -0 40.90282 -0 -5.164724 -16.18017 -2.837763 -7.395792 9.179713 -23.12199 -0 5.174896 -0 19.67875 -8.175588 29.23437 -3.216917 -3.015009 4.721703 2.430877 10.97108 -6.847431 1.898368 22.36378 6.470505 2.322959 -25.17944 10.3024 5.999371 -21.24073 12.3591 87.339 37.95971 -17.87256 -0 0 14.02787 -7.263035 8.49406 7.240479 3.023207 -17.73129 -4.358215 -89.8575 23.50128 19.55605 0 0 -19.77211 15.28241 12.32134 -0.6967103
0.4628771 105.0527 5.893613 0.1747637 -6.222161 0.415307 1.76885 -18.22085 -1.488065 -0 27.37477 -0 -6.504786 0.062717 -1.293819 -6.139431 12.69483 -13.39985 -0 6.488233 -0 4.342994 -18.91028 20.19403 -1.865005 -1.079247 2.023588 1.563125 10.28302 -5.964413 1.718734 24.69851 6.608174 1.638605 -23.68001 9.850054 -1.392063 -18.80645 11.34831 92.51086 17.30107 -18.23372 -0 0 7.215713 -18.02561 7.625615 10.39771 6.417491 -22.27167 -4.68158 -89.21317 21.16502 14.23689 0 0 -17.67962 14.05153 18.07251 -2.793454
0.6515757 104.8998 10.16318 1.120757 -3.868467 0.855508 1.175014 -24.17895 -3.04798 -0 15.35301 -0 -3.50002 -3.887035 -0.9145463 -7.124768 15.9728 -13.19928 -0 0.8111968 -0 7.292507 -21.30226 20.43003 -2.656677 -2.214353 3.207485 2.132573 9.921477 -6.848758 1.243837 24.24791 6.94847 1.359155 -24.02593 9.984269 -0.8850167 -19.16591 11.523 92.87643 19.85659 -21.59237 -0 0 6.248913 -18.1068 9.647058 9.533266 6.77182 -23.81092 -5.372336 -86.9364 21.04076 12.7589 0 0 -26.31479 14.27545 18.30568 -2.561827
0.9117434 104.1976 15.52857 2.397939 1.729919 1.230004 -0.148286 -34.06338 -8.467184 0 -4.194716 0 -1.251884 -4.747647 0.9005388 -8.922676 20.56935 -9.043564 0 -4.118098 0 11.21115 -24.97578 16.7318 -4.295005 -4.901663 4.797036 3.406634 9.634102 -9.446206 -0.4764811 22.66563 7.89539 1.649491 -24.34799 8.624284 0.6179203 -19.15108 12.15997 94.27174 25.86759 -29.06088 -0 0 2.445439 -20.48657 14.21773 9.375688 6.77203 -28.03574 -6.980225 -80.99986 19.70671 9.250621 0 0 -44.33522 13.1231 17.72131 -0.6782626
1.297663 103.381 21.84687 2.791759 6.983317 1.701016 -0.7908975 -40.13822 -11.94262 0 -11.54854 0 -2.046623 -3.645891 2.59301 -10.16028 22.44026 -5.244067 0 -4.47878 0 14.51647 -26.15878 12.47589 -5.376966 -7.61982 5.845053 4.412248 9.83483 -12.05255 -2.200356 20.83514 8.687785 2.286026 -25.09032 6.909908 2.635774 -19.38093 12.9984 96.31374 32.35294 -35.75827 0 0 -0.02212951 -21.95013 18.02994 9.175044 6.082168 -31.77839 -8.024072 -76.51047 18.51344 8.104235 0 0 -57.71476 12.52751 16.96292 0.9397055
1.722147 102.6059 28.96325 2.2011 9.539171 2.555056 -0.09937468 -42.55124 -13.04873 0 -11.21605 0 -4.208392 -0.9604036 3.434292 -10.29106 23.37377 -2.806789 -0 0.08327898 -0 15.38365 -25.46605 8.934171 -5.226239 -9.369697 5.93897 4.960129 10.42808 -13.73806 -3.203838 19.70478 9.131315 2.647467 -25.83444 5.890771 3.538657 -19.56035 13.63901 98.17247 34.67765 -39.9097 0 0 -1.649771 -23.3694 20.20918 9.429346 5.166658 -34.03892 -8.756215 -74.36227 17.65603 8.299359 0 0 -63.78526 12.44408 16.75731 1.793174
